<?xml version="1.0" encoding="UTF-8" standalone="no"?>
<!-- Uploaded to: SVG Repo, www.svgrepo.com, Generator: SVG Repo Mixer Tools -->

<svg
   fill="#D3D3D3"
   version="1.1"
   id="Capa_1"
   width="30px"
   height="24px"
   viewBox="0 0 45.74 45.74"
   xml:space="preserve"
   sodipodi:docname="moon.svg"
   inkscape:version="1.2.1 (9c6d41e410, 2022-07-14)"
   xmlns:inkscape="http://www.inkscape.org/namespaces/inkscape"
   xmlns:sodipodi="http://sodipodi.sourceforge.net/DTD/sodipodi-0.dtd"
   xmlns="http://www.w3.org/2000/svg"
   xmlns:svg="http://www.w3.org/2000/svg"><defs
   id="defs29" /><sodipodi:namedview
   id="namedview27"
   borderopacity="1"
   inkscape:showpageshadow="0"
   inkscape:pageopacity="0"
   inkscape:pagecheckerboard="0"
   inkscape:deskcolor="#505050"
   showgrid="false"
   inkscape:zoom="0.65625"
   inkscape:cx="261.33333"
   inkscape:cy="525.71429"
   inkscape:window-width="1366"
   inkscape:window-height="705"
   inkscape:window-x="-8"
   inkscape:window-y="-8"
   inkscape:window-maximized="1"
   inkscape:current-layer="Capa_1" />
<g
   id="g24">
	<g
   id="g22">
		<g
   id="g20">
			<g
   id="g6">
				<g
   id="g4">
					<path
   d="M12.2,15.267c0-3.322,0.896-6.43,2.448-9.113c0.376-0.649-0.191-1.451-0.918-1.265       C5.35,7.041-0.711,14.961,0.067,24.179c0.736,8.701,7.768,15.803,16.463,16.617c6.033,0.565,11.517-1.811,15.221-5.848       c0.5-0.546,0.073-1.432-0.666-1.401c-0.196,0.009-0.395,0.013-0.594,0.013C20.389,33.56,12.2,25.371,12.2,15.267z"
   id="path2" />
				</g>
			</g>
			<g
   id="g10">
				<path
   d="M23.144,5.6l0.917,2.633l2.788,0.061c0.354,0.008,0.498,0.456,0.218,0.669l-2.221,1.687l0.805,2.669      c0.104,0.338-0.279,0.614-0.568,0.414l-2.292-1.59l-2.29,1.59c-0.29,0.201-0.669-0.076-0.569-0.414l0.805-2.669l-2.221-1.687      c-0.28-0.213-0.134-0.661,0.218-0.669l2.788-0.061L22.44,5.6C22.556,5.267,23.027,5.267,23.144,5.6z"
   id="path8" />
			</g>
			<g
   id="g14">
				<path
   d="M40.26,26.44l0.881,2.53l2.679,0.057c0.389,0.009,0.549,0.502,0.24,0.737l-2.134,1.621l0.772,2.564      c0.111,0.371-0.309,0.677-0.627,0.454l-2.201-1.527l-2.2,1.527c-0.318,0.223-0.739-0.083-0.626-0.454l0.772-2.564l-2.133-1.621      c-0.31-0.234-0.149-0.729,0.238-0.737l2.679-0.057l0.884-2.53C39.612,26.074,40.131,26.074,40.26,26.44z"
   id="path12" />
			</g>
			<g
   id="g18">
				<path
   d="M39.926,8.098l1.325,3.799l4.021,0.086c0.452,0.01,0.639,0.584,0.278,0.858l-3.204,2.434l1.162,3.853      c0.131,0.433-0.356,0.788-0.729,0.529l-3.306-2.294l-3.305,2.294c-0.372,0.259-0.86-0.097-0.729-0.529l1.161-3.853l-3.205-2.434      c-0.358-0.273-0.172-0.849,0.279-0.858l4.022-0.086l1.324-3.799C39.173,7.672,39.776,7.672,39.926,8.098z"
   id="path16" />
			</g>
		</g>
	</g>
</g>
<path
   d="M 292.82831,713.09108 C 250.51426,709.00576 215.89254,699.20357 179.13167,680.90097 117.17382,650.05324 66.630763,599.91083 35.3048,538.21417 12.037998,492.3901 1.4829896,448.1637 1.4004579,396.15208 1.3440699,360.61635 4.4847153,337.58469 13.758709,305.52381 42.840067,204.98745 122.89487,123.31765 223.65123,91.396998 c 18.12415,-5.741918 20.70115,-6.208547 24.83377,-4.496761 4.63919,1.921621 9.03881,8.269887 9.03881,13.042238 0,1.413505 -4.02658,10.533275 -8.94796,20.266145 -17.16104,33.93897 -27.83936,67.57968 -32.84637,103.47848 -2.76485,19.82307 -3.17949,61.86519 -0.80002,81.11477 7.43799,60.17215 31.71676,117.57943 69.58391,164.53146 11.87831,14.72811 40.60643,42.49113 55.60744,53.73934 54.33421,40.74149 113.6855,61.21879 187.046,64.53435 21.78702,0.98469 23.80946,1.32596 27.04762,4.56412 2.44645,2.44644 3.49986,5.27726 3.49986,9.40509 0,5.44937 -1.1469,7.03943 -14.85715,20.59777 -17.69473,17.4987 -29.6553,27.24102 -49.14285,40.02868 -37.65451,24.70876 -83.11589,41.94318 -128,48.52485 -20.53553,3.01127 -54.7016,4.11921 -72.88598,2.36355 z"
   id="path411"
   transform="scale(0.057175)" /><path
   d="m 350.42979,238.42028 c -1.60878,-1.93847 -0.72265,-6.38029 5.14675,-25.79861 3.89957,-12.90133 7.09013,-24.36192 7.09013,-25.46796 0,-1.10604 -8.86091,-8.74876 -19.69091,-16.98381 -10.83,-8.23505 -20.04005,-15.88266 -20.46677,-16.99468 -0.42672,-1.11202 0.0602,-3.16516 1.08194,-4.56254 1.56025,-2.13377 6.00497,-2.681 27.75109,-3.41669 l 25.89329,-0.876 8.09745,-23.33074 c 4.45359,-12.83192 9.02842,-24.103395 10.16628,-25.047736 5.21907,-4.33144 7.38955,-1.121295 16.02241,23.697196 L 419.99528,144 l 25.68847,1.07387 c 26.40449,1.1038 31.36355,2.41466 29.31642,7.7494 -0.46484,1.21134 -9.64433,8.90987 -20.39886,17.10784 -10.75453,8.19797 -19.84264,15.14899 -20.19581,15.44672 -0.35316,0.29773 2.65225,11.63127 6.67869,25.18564 7.57468,25.49895 7.76507,29.54014 1.38286,29.35304 -1.5664,-0.0459 -11.87952,-6.38878 -22.91804,-14.09524 -11.03852,-7.70646 -20.41048,-14.01175 -20.82656,-14.01175 -0.41609,0 -10.18045,6.51429 -21.69858,14.47619 -11.51813,7.96191 -21.7765,14.47619 -22.79638,14.47619 -1.01988,0 -2.72885,-1.05373 -3.7977,-2.34162 z"
   id="path413"
   transform="scale(0.057175)" /><path
   d="m 622.43449,341.28725 c -2.73489,-3.02202 -2.55132,-3.92211 7.92265,-38.84829 l 10.7224,-35.75459 -29.49215,-22.33942 c -25.90656,-19.62345 -29.49215,-22.85566 -29.49215,-26.58559 0,-2.33539 0.85714,-4.80092 1.90476,-5.47895 1.04762,-0.67804 18.61827,-1.91851 39.0459,-2.7566 L 660.18704,208 672.0867,173.86729 c 6.54482,-18.77299 12.80273,-34.70535 13.90648,-35.40524 3.58349,-2.27229 8.71716,-1.39314 10.41753,1.78403 0.91343,1.70677 6.02869,15.59248 11.36724,30.85714 5.33855,15.26466 10.48467,29.90704 11.43582,32.53863 l 1.72937,4.78471 36.09986,1.10694 c 19.85492,0.60881 37.29986,1.73696 38.76652,2.507 1.60226,0.84122 2.66667,3.15915 2.66667,5.80713 0,3.9388 -3.07301,6.72611 -28.92084,26.2321 -15.90647,12.00377 -28.93504,22.76602 -28.95238,23.91611 -0.0174,1.1501 4.4256,16.69197 9.87322,34.53751 5.44762,17.84553 9.90476,33.48413 9.90476,34.75246 0,3.08451 -4.17077,7.10028 -7.34694,7.07389 -1.40679,-0.0122 -15.90932,-9.28407 -32.22781,-20.60528 -16.3185,-11.3212 -30.46797,-20.2778 -31.44328,-19.90354 -0.9753,0.37426 -14.6471,9.64663 -30.38177,20.60527 -15.73467,10.95865 -29.76463,19.9248 -31.1777,19.9248 -1.41306,0 -3.82909,-1.39217 -5.36896,-3.0937 z"
   id="path415"
   transform="scale(0.057175)" /><path
   d="m 650.15873,600.88889 c -2.12006,-2.12006 -0.81013,-9.5212 5.07937,-28.69841 3.34602,-10.89524 6.08628,-20.86159 6.08946,-22.14744 0.003,-1.28585 -8.57003,-8.82871 -19.05157,-16.76191 -29.05981,-21.99459 -28.29865,-24.23587 8.64512,-25.45618 l 24.98637,-0.82535 8.33198,-23.78551 c 7.34557,-20.96963 8.75867,-23.84589 11.93629,-24.29548 1.98237,-0.28049 4.28281,0.16852 5.11209,0.9978 0.82927,0.82927 5.11472,11.68732 9.52322,24.12901 l 8.01547,22.62125 24.67427,1.02892 c 36.72253,1.53135 37.56102,3.70825 9.64206,25.03288 -10.68572,8.1618 -19.71967,15.07076 -20.07545,15.35325 -0.35578,0.28249 2.54045,11.21562 6.43607,24.29585 7.43067,24.94977 7.58341,29.52719 0.98523,29.52719 -1.66272,0 -11.8372,-6.17143 -22.60997,-13.71428 -10.77277,-7.54286 -19.97248,-13.71429 -20.44379,-13.71429 -0.47132,0 -9.74832,6.17143 -20.61557,13.71429 -18.21314,12.64156 -23.97374,15.38532 -26.66065,12.69841 z"
   id="path417"
   transform="scale(0.057175)" /></svg>
